# xmcd
#
# Track frame offsets:
#	183
#	36398
#	65885
#	90773
#	135090
#
# Disc length: 2705 seconds
#
# Revision: 4
# Processed by: cddbd v1.5.2PL0 Copyright (c) Steve Scherf et al.
# Submitted via: audiograbber 1.83.01
#
DISCID=380a8f05
DTITLE=Ottorino Respighi - Church Windows - Poema Autunnale [Keith Clark - Paci
DTITLE=fic Symphony Orchestra]
DYEAR=1985
DGENRE=Classical
TTITLE0=Church Windows - The Flight Into Egypt (La Fuga in Egitto)
TTITLE1=Church Windows - St. Michael Archangel (S. Michele Arcangelo)
TTITLE2=Church Windows - The Matins Of St. Claire (Il Mattutino di Santa Chiara
TTITLE2=)
TTITLE3=Church Windows - St. Gregory The Great (S. Gregorio Magno)
TTITLE4=Autumn Poem (Poema Autumnale)
EXTD=
EXTT0=
EXTT1=
EXTT2=
EXTT3=
EXTT4=
PLAYORDER=
